<?xml version="1.0" encoding="UTF-8"?>
<!-- Generated by Pixelmator Pro Trial 3.4.3 -->
<svg width="666" height="666" viewBox="0 0 666 666" xmlns="http://www.w3.org/2000/svg">
    <g id="Logo-Placeholder-Replace-With-Your-Logo-">
        <path id="Logo-Shape" fill="#4338ca" fill-rule="evenodd" stroke="none" d="M 664.5 333 C 664.5 149.365356 515.634644 0.5 332 0.5 C 148.365311 0.5 -0.5 149.365356 -0.5 333 C -0.5 516.634705 148.365311 665.5 332 665.5 C 515.634644 665.5 664.5 516.634705 664.5 333 Z"/>
        <path id="F" fill="#ffffff" fill-rule="evenodd" stroke="none" d="M 390.6875 267.046875 L 308.421875 267.046875 L 308.421875 319.78125 L 377.1875 319.78125 C 383.562531 319.78125 388.320282 321.210938 391.460938 324.070313 C 394.601593 326.929688 396.171875 330.749969 396.171875 335.53125 C 396.171875 340.312531 394.578156 344.109375 391.390625 346.921875 C 388.203094 349.734375 383.468781 351.140625 377.1875 351.140625 L 308.421875 351.140625 L 308.421875 419.0625 C 308.421875 427.687561 306.476593 434.085938 302.585938 438.257813 C 298.695282 442.429688 293.703156 444.515625 287.609375 444.515625 C 281.421844 444.515625 276.382843 442.40625 272.492188 438.1875 C 268.601532 433.96875 266.65625 427.593811 266.65625 419.0625 L 266.65625 260.4375 C 266.65625 254.437469 267.546875 249.539093 269.328125 245.742188 C 271.109375 241.945282 273.898407 239.179688 277.695313 237.445313 C 281.492218 235.710938 286.343719 234.84375 292.25 234.84375 L 390.6875 234.84375 C 397.343781 234.84375 402.289032 236.320313 405.523438 239.273438 C 408.757843 242.226563 410.375 246.093719 410.375 250.875 C 410.375 255.750031 408.757843 259.664063 405.523438 262.617188 C 402.289032 265.570313 397.343781 267.046875 390.6875 267.046875 Z"/>
    </g>
</svg>
